<svg xmlns="http://www.w3.org/2000/svg" viewBox="0 0 1400 1400" role="img" aria-labelledby="title desc">
  <title id="title">70s Feel Good by With love, FMB</title>
  <desc id="desc">A warm retro album cover with layered sunset arches, rich plum, amber, cream and orange tones.</desc>
  <defs>
    <linearGradient id="bg" x1="0" y1="0" x2="1" y2="1">
      <stop offset="0" stop-color="#2c1325"/>
      <stop offset="0.55" stop-color="#6f2f35"/>
      <stop offset="1" stop-color="#d26e3b"/>
    </linearGradient>
    <radialGradient id="glow" cx="50%" cy="40%" r="62%">
      <stop offset="0" stop-color="#ffe5a8" stop-opacity="0.5"/>
      <stop offset="1" stop-color="#ffe5a8" stop-opacity="0"/>
    </radialGradient>
    <filter id="shadow" x="-30%" y="-30%" width="160%" height="160%">
      <feDropShadow dx="0" dy="24" stdDeviation="22" flood-color="#1e0b17" flood-opacity="0.35"/>
    </filter>
  </defs>
  <rect width="1400" height="1400" rx="72" fill="url(#bg)"/>
  <rect width="1400" height="1400" rx="72" fill="url(#glow)"/>
  <g opacity="0.17" fill="none" stroke="#fff3d2" stroke-width="2">
    <path d="M-80 250C250 40 540 105 820 275s520 170 740 0"/>
    <path d="M-120 305C235 80 545 145 825 315s535 175 775-10"/>
    <path d="M-150 360C225 120 550 185 830 355s550 180 810-20"/>
  </g>
  <g transform="translate(700 650)" filter="url(#shadow)">
    <path d="M-510 285A510 510 0 0 1 510 285Z" fill="#f6d98f"/>
    <path d="M-420 285A420 420 0 0 1 420 285Z" fill="#e99b54"/>
    <path d="M-325 285A325 325 0 0 1 325 285Z" fill="#c4513b"/>
    <path d="M-230 285A230 230 0 0 1 230 285Z" fill="#732c39"/>
    <path d="M-135 285A135 135 0 0 1 135 285Z" fill="#f8e8bd"/>
  </g>
  <g fill="#fff8e7">
    <text x="700" y="155" text-anchor="middle" font-family="Arial, Helvetica, sans-serif" font-size="31" font-weight="700" letter-spacing="11">WITH LOVE, FMB MUSIC</text>
    <text x="700" y="535" text-anchor="middle" font-family="Georgia, 'Times New Roman', serif" font-size="310" font-weight="700" letter-spacing="-20">70s</text>
    <text x="700" y="1115" text-anchor="middle" font-family="Arial, Helvetica, sans-serif" font-size="122" font-weight="800" letter-spacing="18">FEEL GOOD</text>
  </g>
  <text x="700" y="1195" text-anchor="middle" fill="#f7ddb0" font-family="Georgia, 'Times New Roman', serif" font-size="39" font-style="italic" letter-spacing="2">warm rhythm • bright days • easy movement</text>
  <g transform="translate(700 1290)" fill="#fff8e7" opacity="0.9">
    <circle cx="-68" cy="0" r="5"/>
    <rect x="-45" y="-2" width="90" height="4" rx="2"/>
    <circle cx="68" cy="0" r="5"/>
  </g>
  <rect x="34" y="34" width="1332" height="1332" rx="48" fill="none" stroke="#fff3d2" stroke-opacity="0.55" stroke-width="3"/>
</svg>
