<svg xmlns="http://www.w3.org/2000/svg" viewBox="0 0 1400 320" role="img" aria-labelledby="title desc">
<title id="title">FMB eBook</title><desc id="desc">Transparent FMB eBook channel identity based on the approved FMB silhouette and gold channel treatment.</desc>
<defs>
  <linearGradient id="gold" x1="0" y1="0" x2="0" y2="1"><stop offset="0" stop-color="#fff0ad"/><stop offset=".26" stop-color="#f5ca56"/><stop offset=".58" stop-color="#c88b1e"/><stop offset=".82" stop-color="#8e5510"/><stop offset="1" stop-color="#f0c555"/></linearGradient>
  <filter id="shadow" x="-20%" y="-30%" width="150%" height="180%"><feDropShadow dx="0" dy="8" stdDeviation="6" flood-color="#14041f" flood-opacity=".55"/><feDropShadow dx="0" dy="0" stdDeviation="5" flood-color="#f5c957" flood-opacity=".22"/></filter>
</defs>
<g transform="translate(0 18) scale(1.08)"><path d="M147 111 L141 123 L137 135 L135 150 L136 197 L135 202 L136 210 L136 234 L135 246 L136 247 L136 253 L177 253 L177 148 L178 143 L181 134 L186 127 L189 124 L190 124 L194 120 L198 118 L208 115 L218 115 L222 116 L231 120 L234 122 L240 128 L243 132 L247 141 L248 147 L248 253 L288 253 L288 148 L289 142 L290 139 L295 130 L304 121 L312 117 L319 115 L329 115 L341 119 L344 121 L353 130 L355 133 L358 140 L359 144 L359 253 L400 253 L400 141 L399 134 L397 126 L394 118 L391 112 L382 99 L377 94 L370 88 L364 84 L352 78 L343 75 L330 73 L320 73 L307 75 L301 77 L287 84 L280 89 L269 100 L258 89 L251 84 L239 78 L230 75 L217 73 L209 73 L200 74 L195 75 L184 79 L171 86 L167 89 L162 94 L161 94 L157 98 L151 105 Z M414 4 L413 9 L413 35 L414 46 L414 106 L413 114 L414 125 L414 155 L413 168 L414 180 L417 193 L421 203 L426 213 L433 223 L445 235 L453 241 L463 247 L470 250 L479 253 L495 256 L512 256 L528 253 L537 250 L549 244 L554 241 L562 235 L575 222 L579 217 L586 206 L593 187 L595 178 L596 170 L596 155 L593 139 L590 130 L586 121 L580 111 L570 99 L561 91 L554 86 L538 78 L529 75 L519 73 L509 72 L502 72 L489 74 L476 78 L466 83 L458 88 L456 90 L455 4 L453 4 L452 3 Z M495 115 L514 115 L521 117 L528 120 L537 126 L544 133 L549 140 L553 149 L555 159 L555 170 L553 180 L548 190 L541 199 L533 206 L528 209 L515 214 L494 214 L487 212 L477 207 L474 205 L462 193 L456 182 L454 176 L453 171 L453 157 L456 147 L462 136 L473 125 L477 122 L488 117 Z M174 20 L165 14 L151 7 L139 3 L121 0 L104 0 L96 1 L83 4 L67 10 L56 16 L50 20 L40 28 L31 37 L23 47 L22 50 L19 53 L15 60 L9 73 L4 88 L1 103 L0 143 L0 177 L1 189 L1 253 L43 253 L43 166 L45 158 L113 157 L112 116 L44 115 L44 109 L46 98 L50 86 L57 74 L60 70 L72 58 L79 53 L89 48 L95 46 L105 44 L118 44 L132 47 L144 53 L147 55 L155 63 L158 64 L162 62 L168 57 L185 46 L188 45 L194 41 L192 39 L192 38 L188 33 L179 24 Z" fill="#fff" fill-rule="evenodd"/></g>
<rect x="682" y="29" width="5" height="262" rx="2.5" fill="url(#gold)" filter="url(#shadow)"/>
<text x="748" y="210" fill="url(#gold)" stroke="#70400b" stroke-width="1.8" paint-order="stroke" filter="url(#shadow)" font-family="Arial, Helvetica, sans-serif" font-size="130" font-weight="500" letter-spacing="24">EBOOK</text>
</svg>