<svg xmlns="http://www.w3.org/2000/svg" viewBox="0 0 620 210" role="img" aria-labelledby="t d"><title id="t">SENZ Strategic Communications</title><desc id="d">Blue SENZ wordmark.</desc><defs><linearGradient id="g" x1="0" y1="0" x2="1" y2="1"><stop stop-color="#1048ff"/><stop offset="1" stop-color="#2228d9"/></linearGradient></defs><g transform="translate(26 22)"><path d="M82 8 34 58c-17 18-15 46 4 61l31 25 38-39-30-24 32-34 29 23 39-40-32-25C126-10 99-9 82 8Z" fill="url(#g)"/><path d="m111 75-39 40 31 25-32 34-31-25-39 40 32 25c20 16 49 14 66-5l48-52c17-19 14-48-6-64z" transform="translate(0 -37)" fill="url(#g)" opacity=".95"/><rect x="100" y="3" width="28" height="28" rx="3" transform="rotate(45 114 17)" fill="#164cff"/></g><text x="225" y="103" font-family="Arial,Helvetica,sans-serif" font-size="78" letter-spacing="24" fill="#06154a">SENZ</text><text x="229" y="150" font-family="Arial,Helvetica,sans-serif" font-size="18" font-weight="600" letter-spacing="7" fill="#244bdc">STRATEGIC COMMUNICATIONS</text></svg>